<svg width="209" height="50" viewBox="0 0 209 50" fill="none" xmlns="http://www.w3.org/2000/svg">
<path d="M19 7.325L15 9.625C14.5 9.925 13.9 9.925 13.4 9.625L11.4 8.525C10.9 8.225 10.3 8.225 9.8 8.525L7.8 9.725C7.3 10.025 7 10.525 7 11.125V31.725V37.225C7 38.425 5.7 39.225 4.7 38.625L0.7 36.325C0.3 35.825 0 35.325 0 34.825V6.825C0 6.225 0.3 5.725 0.8 5.425L9.9 0.225C10.4 -0.075 11 -0.075 11.5 0.225L19 4.625C20 5.225 20 6.725 19 7.325Z" fill="#27004B"/>
<path d="M49.8 6.825V34.725C49.8 35.325 49.5 35.825 49 36.125L45 38.425C44 39.025 42.6 38.325 42.6 37.025V10.925C42.6 10.325 42.3 9.825 41.8 9.525L39.8 8.425C39.3 8.125 38.7 8.125 38.2 8.425L28.3 14.125L25.5 15.725C25 16.025 24.4 16.025 23.9 15.725L19.9 13.425C18.9 12.825 18.9 11.325 19.9 10.725L28.2 5.925L38.1 0.225C38.6 -0.075 39.2 -0.075 39.7 0.225L49 5.525C49.5 5.825 49.8 6.325 49.8 6.825Z" fill="#27004B"/>
<path d="M36.8 13.425C37.8 12.825 39.2 13.625 39.2 14.825V33.625V40.925C39.2 41.525 38.9 42.025 38.4 42.325L32 45.925L25.6 49.625C25.1 49.925 24.5 49.925 24 49.625L11.3 42.325C10.8 42.025 10.5 41.525 10.5 40.925V36.325C10.5 35.125 11.8 34.325 12.9 34.925L24 41.325C24.5 41.625 25.1 41.625 25.6 41.325L31.2 38.125C31.7 37.825 32 37.325 32 36.725V34.625C32 34.125 31.5 33.825 31.1 34.125L25.7 37.225C25.2 37.525 24.6 37.525 24.1 37.225L11.4 29.925C10.9 29.625 10.6 29.125 10.6 28.525V14.825C10.6 13.625 11.9 12.825 12.9 13.425L16.9 15.725C17.4 16.025 17.7 16.525 17.7 17.125V24.525C17.7 25.125 18 25.625 18.5 25.925L24 29.125C24.5 29.425 25.1 29.425 25.6 29.125L31.2 25.925C31.7 25.625 32 25.125 32 24.525V17.125C32 16.525 32.3 16.025 32.8 15.725L36.8 13.425Z" fill="#F15A22"/>
<path d="M58.9 35.6251C58.7 35.6251 58.6 35.5251 58.6 35.3251V29.2251C58.6 29.1251 58.6 29.1251 58.5 29.1251H57.1C56.9 29.1251 56.8 29.0251 56.8 28.8251V28.0251C56.8 27.8251 56.9 27.7251 57.1 27.7251H61.7C61.9 27.7251 62 27.8251 62 28.0251V28.8251C62 29.0251 61.9 29.1251 61.7 29.1251H60.3C60.2 29.1251 60.2 29.1251 60.2 29.2251V35.3251C60.2 35.5251 60.1 35.6251 59.9 35.6251H58.9Z" fill="#27004B"/>
<path d="M64.5 35.6251C64.3 35.6251 64.2 35.5251 64.2 35.3251V28.0251C64.2 27.8251 64.3 27.7251 64.5 27.7251H65.5C65.7 27.7251 65.8 27.8251 65.8 28.0251V30.9251C65.8 31.0251 65.8 31.0251 65.9 31.0251H68C68.1 31.0251 68.1 31.0251 68.1 30.9251V28.0251C68.1 27.8251 68.2 27.7251 68.4 27.7251H69.4C69.6 27.7251 69.7 27.8251 69.7 28.0251V35.3251C69.7 35.5251 69.6 35.6251 69.4 35.6251H68.4C68.2 35.6251 68.1 35.5251 68.1 35.3251V32.5251C68.1 32.4251 68.1 32.4251 68 32.4251H65.9C65.8 32.4251 65.8 32.4251 65.8 32.5251V35.3251C65.8 35.5251 65.7 35.6251 65.5 35.6251H64.5Z" fill="#27004B"/>
<path d="M74.1 35.4252C74.1 35.6252 74 35.7252 73.8 35.7252H72.8C72.6 35.7252 72.5 35.6252 72.5 35.4252V28.1252C72.5 27.9252 72.6 27.8252 72.8 27.8252H73.8C74 27.8252 74.1 27.9252 74.1 28.1252V35.4252Z" fill="#27004B"/>
<path d="M77.3 35.6251C77.1 35.6251 77 35.5251 77 35.3251V28.0251C77 27.8251 77.1 27.7251 77.3 27.7251H78.2C78.4 27.7251 78.5 27.8251 78.5 27.9251L81 32.5251V28.0251C81 27.8251 81.1 27.7251 81.3 27.7251H82.3C82.5 27.7251 82.6 27.8251 82.6 28.0251V35.3251C82.6 35.5251 82.5 35.6251 82.3 35.6251H81.4C81.2 35.6251 81.1 35.5251 81 35.4251L78.6 30.9251V35.4251C78.6 35.6251 78.5 35.7251 78.3 35.7251H77.3V35.6251Z" fill="#27004B"/>
<path d="M85.7 35.6251C85.5 35.6251 85.4 35.5251 85.4 35.3251V28.0251C85.4 27.8251 85.5 27.7251 85.7 27.7251H86.7C86.9 27.7251 87 27.8251 87 28.0251V31.5251C87 31.4251 87.1 31.3251 87.1 31.2251C87.2 31.1251 87.2 30.9251 87.3 30.8251L89.1 28.1251C89.2 27.9251 89.4 27.8251 89.6 27.8251H90.8C90.9 27.8251 90.9 27.8251 91 27.9251C91 28.0251 91 28.0251 90.9 28.1251L88.6 31.3251L91.2 35.3251C91.3 35.5251 91.2 35.6251 91 35.6251H90.1C89.8 35.6251 89.6 35.5251 89.5 35.3251L87.6 32.3251L87 33.3251V35.4251C87 35.6251 86.9 35.7251 86.7 35.7251H85.7V35.6251Z" fill="#27004B"/>
<path d="M97.5 28.1252C97.5 27.9252 97.6 27.8252 97.8 27.8252H100.7C101.3 27.8252 101.8 28.0252 102.2 28.3252C102.5 28.6252 102.7 29.1252 102.7 29.8252V30.3252C102.7 31.0252 102.4 31.4252 101.7 31.6252C102 31.6252 102.3 31.8252 102.5 32.0252C102.7 32.2252 102.8 32.5252 102.8 32.9252V33.6252C102.8 34.2252 102.6 34.7252 102.3 35.1252C102 35.4252 101.5 35.6252 100.8 35.6252H97.8C97.6 35.6252 97.5 35.5252 97.5 35.3252V28.1252ZM100.4 31.0252C100.7 31.0252 100.8 30.9252 101 30.8252C101.1 30.7252 101.2 30.5252 101.2 30.3252V29.8252C101.2 29.5252 101.1 29.4252 101 29.3252C100.9 29.2252 100.7 29.1252 100.4 29.1252H99.1C99 29.1252 99 29.1252 99 29.2252V30.8252C99 30.9252 99 30.9252 99.1 30.9252H100.4V31.0252ZM100.5 34.4252C100.8 34.4252 101 34.3252 101.1 34.2252C101.2 34.1252 101.3 33.9252 101.3 33.7252V33.0252C101.3 32.7252 101.2 32.6252 101.1 32.5252C101 32.4252 100.8 32.3252 100.5 32.3252H99.2C99.1 32.3252 99.1 32.3252 99.1 32.4252V34.2252C99.1 34.3252 99.1 34.3252 99.2 34.3252H100.5V34.4252Z" fill="#27004B"/>
<path d="M105.8 35.6251C105.6 35.6251 105.5 35.5251 105.5 35.3251V28.0251C105.5 27.8251 105.6 27.7251 105.8 27.7251H109.8C110 27.7251 110 27.8251 110 28.0251V28.8251C110 29.0251 109.9 29.1251 109.8 29.1251H107.3C107.2 29.1251 107.2 29.1251 107.2 29.2251V30.8251C107.2 30.9251 107.2 30.9251 107.3 30.9251H109.4C109.6 30.9251 109.7 31.0251 109.7 31.2251V32.0251C109.7 32.2251 109.6 32.3251 109.4 32.3251H107.3C107.2 32.3251 107.2 32.3251 107.2 32.4251V34.1251C107.2 34.2251 107.2 34.2251 107.3 34.2251H109.8C110 34.2251 110 34.3251 110 34.5251V35.3251C110 35.5251 109.9 35.6251 109.8 35.6251H105.8Z" fill="#27004B"/>
<path d="M114.1 35.6251C113.9 35.6251 113.8 35.5251 113.8 35.3251V29.2251C113.8 29.1251 113.8 29.1251 113.7 29.1251H112.3C112.1 29.1251 112 29.0251 112 28.8251V28.0251C112 27.8251 112.1 27.7251 112.3 27.7251H116.9C117.1 27.7251 117.2 27.8251 117.2 28.0251V28.8251C117.2 29.0251 117.1 29.1251 116.9 29.1251H115.5C115.4 29.1251 115.4 29.1251 115.4 29.2251V35.3251C115.4 35.5251 115.3 35.6251 115.1 35.6251H114.1Z" fill="#27004B"/>
<path d="M120.8 35.6251C120.6 35.6251 120.5 35.5251 120.5 35.3251V29.2251C120.5 29.1251 120.5 29.1251 120.4 29.1251H119C118.8 29.1251 118.7 29.0251 118.7 28.8251V28.0251C118.7 27.8251 118.8 27.7251 119 27.7251H123.6C123.8 27.7251 123.9 27.8251 123.9 28.0251V28.8251C123.9 29.0251 123.8 29.1251 123.6 29.1251H122.2C122.1 29.1251 122.1 29.1251 122.1 29.2251V35.3251C122.1 35.5251 122 35.6251 121.8 35.6251H120.8Z" fill="#27004B"/>
<path d="M126.3 35.6251C126.1 35.6251 126 35.5251 126 35.3251V28.0251C126 27.8251 126.1 27.7251 126.3 27.7251H130.3C130.5 27.7251 130.5 27.8251 130.5 28.0251V28.8251C130.5 29.0251 130.4 29.1251 130.3 29.1251H127.8C127.7 29.1251 127.7 29.1251 127.7 29.2251V30.8251C127.7 30.9251 127.7 30.9251 127.8 30.9251H129.9C130.1 30.9251 130.2 31.0251 130.2 31.2251V32.0251C130.2 32.2251 130.1 32.3251 129.9 32.3251H127.8C127.7 32.3251 127.7 32.3251 127.7 32.4251V34.1251C127.7 34.2251 127.7 34.2251 127.8 34.2251H130.3C130.5 34.2251 130.5 34.3251 130.5 34.5251V35.3251C130.5 35.5251 130.4 35.6251 130.3 35.6251H126.3Z" fill="#27004B"/>
<path d="M133.4 35.6251C133.2 35.6251 133.1 35.5251 133.1 35.3251V28.0251C133.1 27.8251 133.2 27.7251 133.4 27.7251H136.3C136.9 27.7251 137.4 27.9251 137.8 28.2251C138.2 28.5251 138.3 29.0251 138.3 29.7251V30.6251C138.3 31.5251 137.9 32.1251 137.2 32.4251L138.5 35.1251C138.6 35.3251 138.5 35.4251 138.3 35.4251H137.3C137.2 35.4251 137 35.4251 137 35.4251C136.9 35.4251 136.9 35.3251 136.8 35.2251L135.6 32.6251H134.8C134.7 32.6251 134.7 32.6251 134.7 32.7251V35.2251C134.7 35.4251 134.6 35.5251 134.4 35.5251H133.4V35.6251ZM136 31.5251C136.3 31.5251 136.4 31.4251 136.6 31.3251C136.7 31.2251 136.8 31.0251 136.8 30.8251V29.9251C136.8 29.4251 136.5 29.2251 136 29.2251H134.8C134.7 29.2251 134.7 29.2251 134.7 29.3251V31.4251C134.7 31.5251 134.7 31.5251 134.8 31.5251H136Z" fill="#27004B"/>
<path d="M145.1 28.1252C145.1 27.9252 145.2 27.8252 145.4 27.8252H148.4C149 27.8252 149.5 28.0252 149.9 28.3252C150.3 28.6252 150.4 29.1252 150.4 29.8252V33.7252C150.4 34.3252 150.2 34.8252 149.9 35.2252C149.5 35.5252 149.1 35.7252 148.4 35.7252H145.4C145.2 35.7252 145.1 35.6252 145.1 35.4252V28.1252ZM148.1 34.3252C148.4 34.3252 148.5 34.2252 148.7 34.1252C148.8 34.0252 148.9 33.8252 148.9 33.5252V29.8252C148.9 29.5252 148.8 29.4252 148.7 29.2252C148.6 29.1252 148.4 29.0252 148.1 29.0252H146.8C146.7 29.0252 146.7 29.0252 146.7 29.1252V34.0252C146.7 34.1252 146.7 34.1252 146.8 34.1252H148.1V34.3252Z" fill="#27004B"/>
<path d="M155 35.6251C154.4 35.6251 153.9 35.4251 153.5 35.1251C153.2 34.8251 153 34.3251 153 33.6251V29.7251C153 29.1251 153.2 28.6251 153.5 28.2251C153.8 27.9251 154.3 27.7251 155 27.7251H156.4C157 27.7251 157.5 27.9251 157.9 28.2251C158.2 28.5251 158.4 29.0251 158.4 29.7251V33.6251C158.4 34.2251 158.2 34.7251 157.9 35.1251C157.6 35.4251 157.1 35.6251 156.4 35.6251H155ZM156.1 34.3251C156.4 34.3251 156.5 34.2251 156.7 34.1251C156.8 34.0251 156.9 33.8251 156.9 33.5251V29.8251C156.9 29.5251 156.8 29.4251 156.7 29.2251C156.6 29.1251 156.4 29.0251 156.1 29.0251H155.2C154.9 29.0251 154.8 29.1251 154.7 29.2251C154.6 29.3251 154.5 29.5251 154.5 29.8251V33.5251C154.5 33.8251 154.6 33.9251 154.7 34.1251C154.8 34.2251 155 34.3251 155.2 34.3251H156.1Z" fill="#27004B"/>
<path d="M165.1 28.1252C165.1 27.9252 165.2 27.8252 165.4 27.8252H168.3C168.9 27.8252 169.4 28.0252 169.8 28.3252C170.2 28.6252 170.3 29.1252 170.3 29.8252V30.3252C170.3 31.0252 170 31.4252 169.3 31.6252C169.6 31.6252 169.9 31.8252 170.1 32.0252C170.3 32.2252 170.4 32.5252 170.4 32.9252V33.6252C170.4 34.2252 170.2 34.7252 169.9 35.1252C169.6 35.5252 169.1 35.6252 168.4 35.6252H165.4C165.2 35.6252 165.1 35.5252 165.1 35.3252V28.1252ZM168 31.0252C168.3 31.0252 168.4 30.9252 168.6 30.8252C168.7 30.7252 168.8 30.5252 168.8 30.3252V29.8252C168.8 29.5252 168.7 29.4252 168.6 29.3252C168.5 29.2252 168.3 29.1252 168 29.1252H166.7C166.6 29.1252 166.6 29.1252 166.6 29.2252V30.8252C166.6 30.9252 166.6 30.9252 166.7 30.9252H168V31.0252ZM168.1 34.4252C168.4 34.4252 168.6 34.3252 168.7 34.2252C168.8 34.1252 168.9 33.9252 168.9 33.7252V33.0252C168.9 32.7252 168.8 32.6252 168.7 32.5252C168.6 32.4252 168.4 32.3252 168.1 32.3252H166.8C166.7 32.3252 166.7 32.3252 166.7 32.4252V34.2252C166.7 34.3252 166.7 34.3252 166.8 34.3252H168.1V34.4252Z" fill="#27004B"/>
<path d="M173.4 35.6251C173.2 35.6251 173.1 35.5251 173.1 35.3251V28.0251C173.1 27.8251 173.2 27.7251 173.4 27.7251H177.4C177.6 27.7251 177.6 27.8251 177.6 28.0251V28.8251C177.6 29.0251 177.5 29.1251 177.4 29.1251H174.9C174.8 29.1251 174.8 29.1251 174.8 29.2251V30.8251C174.8 30.9251 174.8 30.9251 174.9 30.9251H177C177.2 30.9251 177.3 31.0251 177.3 31.2251V32.0251C177.3 32.2251 177.2 32.3251 177 32.3251H174.9C174.8 32.3251 174.8 32.3251 174.8 32.4251V34.1251C174.8 34.2251 174.8 34.2251 174.9 34.2251H177.4C177.6 34.2251 177.6 34.3251 177.6 34.5251V35.3251C177.6 35.5251 177.5 35.6251 177.4 35.6251H173.4Z" fill="#27004B"/>
<path d="M181.6 35.6251C181.4 35.6251 181.3 35.5251 181.3 35.3251V29.2251C181.3 29.1251 181.3 29.1251 181.2 29.1251H179.8C179.6 29.1251 179.5 29.0251 179.5 28.8251V28.0251C179.5 27.8251 179.6 27.7251 179.8 27.7251H184.4C184.6 27.7251 184.7 27.8251 184.7 28.0251V28.8251C184.7 29.0251 184.6 29.1251 184.4 29.1251H183C182.9 29.1251 182.9 29.1251 182.9 29.2251V35.3251C182.9 35.5251 182.8 35.6251 182.6 35.6251H181.6Z" fill="#27004B"/>
<path d="M188.3 35.6251C188.1 35.6251 188 35.5251 188 35.3251V29.2251C188 29.1251 188 29.1251 187.9 29.1251H186.5C186.3 29.1251 186.2 29.0251 186.2 28.8251V28.0251C186.2 27.8251 186.3 27.7251 186.5 27.7251H191.1C191.3 27.7251 191.4 27.8251 191.4 28.0251V28.8251C191.4 29.0251 191.3 29.1251 191.1 29.1251H189.7C189.6 29.1251 189.6 29.1251 189.6 29.2251V35.3251C189.6 35.5251 189.5 35.6251 189.3 35.6251H188.3Z" fill="#27004B"/>
<path d="M193.8 35.6251C193.6 35.6251 193.5 35.5251 193.5 35.3251V28.0251C193.5 27.8251 193.6 27.7251 193.8 27.7251H197.8C198 27.7251 198 27.8251 198 28.0251V28.8251C198 29.0251 197.9 29.1251 197.8 29.1251H195.3C195.2 29.1251 195.2 29.1251 195.2 29.2251V30.8251C195.2 30.9251 195.2 30.9251 195.3 30.9251H197.4C197.6 30.9251 197.7 31.0251 197.7 31.2251V32.0251C197.7 32.2251 197.6 32.3251 197.4 32.3251H195.3C195.2 32.3251 195.2 32.3251 195.2 32.4251V34.1251C195.2 34.2251 195.2 34.2251 195.3 34.2251H197.8C198 34.2251 198 34.3251 198 34.5251V35.3251C198 35.5251 197.9 35.6251 197.8 35.6251H193.8Z" fill="#27004B"/>
<path d="M201 35.6251C200.8 35.6251 200.7 35.5251 200.7 35.3251V28.0251C200.7 27.8251 200.8 27.7251 201 27.7251H203.9C204.5 27.7251 205 27.9251 205.4 28.2251C205.8 28.5251 205.9 29.0251 205.9 29.7251V30.6251C205.9 31.5251 205.5 32.1251 204.8 32.4251L206.1 35.1251C206.2 35.3251 206.1 35.4251 205.9 35.4251H204.9C204.8 35.4251 204.6 35.4251 204.6 35.4251C204.5 35.4251 204.5 35.3251 204.4 35.2251L203.2 32.6251H202.4C202.3 32.6251 202.3 32.6251 202.3 32.7251V35.2251C202.3 35.4251 202.2 35.5251 202 35.5251H201V35.6251ZM203.6 31.5251C203.9 31.5251 204 31.4251 204.2 31.3251C204.3 31.2251 204.4 31.0251 204.4 30.8251V29.9251C204.4 29.4251 204.1 29.2251 203.6 29.2251H202.4C202.3 29.2251 202.3 29.2251 202.3 29.3251V31.4251C202.3 31.5251 202.3 31.5251 202.4 31.5251H203.6Z" fill="#27004B"/>
<path d="M61.4 21.3251C61.1 21.3251 60.9 21.1251 60.9 20.8251V16.1251L56.9 7.6251C56.8 7.5251 56.8 7.4251 56.9 7.3251C57 7.2251 57.1 7.2251 57.2 7.2251H59.5C59.7 7.2251 59.9 7.4251 60 7.7251L62.2 13.1251H62.4L64.6 7.7251C64.7 7.4251 64.9 7.2251 65.1 7.2251H67.4C67.5 7.2251 67.7 7.2251 67.7 7.3251C67.8 7.4251 67.8 7.5251 67.7 7.7251L63.7 16.2251V20.9251C63.7 21.2251 63.5 21.4251 63.2 21.4251H61.4V21.3251Z" fill="#27004B"/>
<path d="M72.9 21.325C71.7 21.325 70.8 21.025 70.2 20.425C69.6 19.825 69.3 18.925 69.3 17.725V10.725C69.3 9.525 69.6 8.625 70.2 8.025C70.8 7.425 71.7 7.125 72.9 7.125H75.4C76.6 7.125 77.5 7.425 78.1 8.025C78.7 8.625 79 9.525 79 10.725V17.725C79 18.925 78.7 19.825 78.1 20.425C77.5 21.025 76.6 21.325 75.4 21.325H72.9ZM74.9 18.925C75.4 18.925 75.7 18.825 75.9 18.625C76.1 18.425 76.2 18.125 76.2 17.625V10.925C76.2 10.425 76.1 10.125 75.9 9.925C75.7 9.725 75.4 9.625 74.9 9.625H73.3C72.8 9.625 72.5 9.725 72.3 9.925C72.1 10.125 72 10.425 72 10.925V17.625C72 18.125 72.1 18.425 72.3 18.625C72.5 18.825 72.8 18.925 73.3 18.925H74.9Z" fill="#27004B"/>
<path d="M90.8 7.125C91.1 7.125 91.3 7.225 91.3 7.525V17.725C91.3 18.825 91 19.725 90.3 20.425C89.7 21.025 88.8 21.325 87.6 21.325H85.2C84 21.325 83.1 21.025 82.5 20.425C81.9 19.825 81.5 18.925 81.5 17.725V7.625C81.5 7.325 81.7 7.125 82 7.125H83.9C84.2 7.125 84.4 7.325 84.4 7.625V17.625C84.4 18.125 84.5 18.425 84.7 18.625C84.9 18.825 85.2 18.925 85.7 18.925H87.2C87.7 18.925 88 18.825 88.2 18.625C88.4 18.425 88.5 18.125 88.5 17.625V7.625C88.5 7.325 88.7 7.125 89 7.125H90.8Z" fill="#27004B"/>
<path d="M94.5 21.325C94.2 21.325 94 21.125 94 20.825V7.625C94 7.325 94.2 7.125 94.5 7.125H96.2C96.5 7.125 96.7 7.225 96.8 7.425L101.3 15.825H101.4V7.625C101.4 7.325 101.6 7.125 101.9 7.125H103.7C104 7.125 104.2 7.325 104.2 7.625V20.925C104.2 21.225 104 21.425 103.7 21.425H102.1C101.8 21.425 101.6 21.325 101.4 21.025L97 12.825H96.9V21.025C96.9 21.325 96.7 21.525 96.4 21.525H94.5V21.325Z" fill="#27004B"/>
<path d="M110.4 21.325C109.2 21.325 108.3 21.025 107.7 20.425C107.1 19.825 106.8 18.925 106.8 17.725V10.725C106.8 9.525 107.1 8.625 107.7 8.025C108.3 7.425 109.2 7.125 110.4 7.125H112.7C113.8 7.125 114.7 7.425 115.4 8.025C116 8.625 116.3 9.525 116.3 10.725V11.425C116.3 11.725 116.1 11.925 115.8 11.925H114C113.7 11.925 113.5 11.725 113.5 11.425V10.925C113.5 10.425 113.4 10.125 113.2 9.925C113 9.725 112.7 9.625 112.2 9.625H110.8C110.3 9.625 110 9.725 109.8 9.925C109.6 10.125 109.5 10.425 109.5 10.925V17.625C109.5 18.125 109.6 18.425 109.8 18.625C110 18.825 110.3 18.925 110.8 18.925H112.2C112.7 18.925 113 18.825 113.2 18.625C113.4 18.425 113.5 18.125 113.5 17.625V16.225C113.5 16.025 113.4 16.025 113.3 16.025H112C111.7 16.025 111.5 15.825 111.5 15.525V14.025C111.5 13.725 111.7 13.525 112 13.525H115.9C116.2 13.525 116.4 13.725 116.4 14.025V17.725C116.4 18.825 116.1 19.725 115.5 20.425C114.9 21.025 114 21.325 112.8 21.325H110.4Z" fill="#27004B"/>
<path d="M136.6 7.125C136.9 7.125 137.1 7.325 137.1 7.625V20.925C137.1 21.225 136.9 21.425 136.6 21.425H134.8C134.5 21.425 134.3 21.225 134.3 20.925V10.425H134.2L131.9 17.825C131.8 18.125 131.6 18.225 131.3 18.225H129.4C129.1 18.225 128.9 18.125 128.8 17.825L126.5 10.425H126.4V20.925C126.4 21.125 126.4 21.225 126.3 21.325C126.2 21.425 126.1 21.425 125.9 21.425H124.1C123.8 21.425 123.6 21.225 123.6 20.925V7.625C123.6 7.325 123.8 7.125 124.1 7.125H127.4C127.6 7.125 127.7 7.225 127.8 7.425L130.1 15.225H130.2L132.6 7.425C132.6 7.225 132.8 7.125 133 7.125H136.6Z" fill="#27004B"/>
<path d="M143.4 21.325C142.2 21.325 141.3 21.025 140.7 20.425C140.1 19.825 139.8 18.925 139.8 17.725V10.725C139.8 9.525 140.1 8.625 140.7 8.025C141.3 7.425 142.2 7.125 143.4 7.125H145.9C147.1 7.125 148 7.425 148.6 8.025C149.2 8.625 149.5 9.525 149.5 10.725V17.725C149.5 18.925 149.2 19.825 148.6 20.425C148 21.025 147.1 21.325 145.9 21.325H143.4ZM145.4 18.925C145.9 18.925 146.2 18.825 146.4 18.625C146.6 18.425 146.7 18.125 146.7 17.625V10.925C146.7 10.425 146.6 10.125 146.4 9.925C146.2 9.725 145.9 9.625 145.4 9.625H143.8C143.3 9.625 143 9.725 142.8 9.925C142.6 10.125 142.5 10.425 142.5 10.925V17.625C142.5 18.125 142.6 18.425 142.8 18.625C143 18.825 143.3 18.925 143.8 18.925H145.4Z" fill="#27004B"/>
<path d="M152.6 21.325C152.3 21.325 152.1 21.125 152.1 20.825V7.625C152.1 7.325 152.3 7.125 152.6 7.125H154.3C154.6 7.125 154.8 7.225 154.9 7.425L159.4 15.825H159.5V7.625C159.5 7.325 159.7 7.125 160 7.125H161.8C162.1 7.125 162.3 7.325 162.3 7.625V20.925C162.3 21.225 162.1 21.425 161.8 21.425H160.2C159.9 21.425 159.7 21.325 159.5 21.025L155.1 12.825H155V21.025C155 21.325 154.8 21.525 154.5 21.525H152.6V21.325Z" fill="#27004B"/>
<path d="M165.5 21.325C165.2 21.325 165 21.125 165 20.825V7.625C165 7.325 165.2 7.125 165.5 7.125H167.4C167.7 7.125 167.9 7.325 167.9 7.625V13.925C168 13.725 168 13.525 168.2 13.325C168.3 13.125 168.5 12.825 168.6 12.525L172 7.625C172.2 7.325 172.5 7.125 172.9 7.125H175.1C175.3 7.125 175.4 7.125 175.4 7.225C175.4 7.325 175.4 7.425 175.3 7.625L171.1 13.425L175.8 20.725C176 21.125 175.9 21.325 175.4 21.325H173.8C173.3 21.325 172.9 21.125 172.8 20.825L169.4 15.425L168 17.025V20.825C168 21.125 167.8 21.325 167.5 21.325H165.5Z" fill="#27004B"/>
<path d="M177.8 21.325C177.5 21.325 177.3 21.125 177.3 20.825V7.625C177.3 7.325 177.5 7.125 177.8 7.125H185C185.3 7.125 185.4 7.325 185.4 7.625V9.125C185.4 9.425 185.3 9.625 185 9.625H180.4C180.2 9.625 180.1 9.725 180.1 9.825V12.725C180.1 12.925 180.2 12.925 180.4 12.925H184.2C184.5 12.925 184.7 13.125 184.7 13.425V14.925C184.7 15.225 184.5 15.425 184.2 15.425H180.4C180.2 15.425 180.1 15.525 180.1 15.625V18.725C180.1 18.925 180.2 18.925 180.4 18.925H185C185.3 18.925 185.4 19.125 185.4 19.425V20.925C185.4 21.225 185.3 21.425 185 21.425H177.8V21.325Z" fill="#27004B"/>
<path d="M191.3 21.3251C191 21.3251 190.8 21.1251 190.8 20.8251V16.1251L186.8 7.6251C186.7 7.5251 186.7 7.4251 186.8 7.3251C186.9 7.2251 187 7.2251 187.1 7.2251H189.4C189.6 7.2251 189.8 7.4251 189.9 7.7251L192.1 13.1251H192.3L194.5 7.7251C194.6 7.4251 194.8 7.2251 195 7.2251H197.3C197.4 7.2251 197.6 7.2251 197.6 7.3251C197.7 7.4251 197.7 7.5251 197.6 7.7251L193.6 16.2251V20.9251C193.6 21.2251 193.4 21.4251 193.1 21.4251H191.3V21.3251Z" fill="#27004B"/>
<path d="M199 17.325C199 17.025 199.2 16.825 199.5 16.825H201.4C201.7 16.825 201.9 17.025 201.9 17.325V17.525C201.9 18.125 202 18.425 202.2 18.625C202.4 18.825 202.8 18.925 203.4 18.925H204.4C205 18.925 205.4 18.825 205.6 18.625C205.8 18.425 205.9 18.025 205.9 17.425V17.125C205.9 16.725 205.8 16.525 205.6 16.325C205.4 16.125 205.1 16.025 204.8 15.925C204.5 15.825 204.1 15.725 203.7 15.725C203.3 15.725 202.9 15.625 202.4 15.525C202.1 15.425 201.8 15.425 201.5 15.325C201.2 15.225 201 15.125 200.7 15.025C200.2 14.825 199.8 14.425 199.4 13.825C199.1 13.225 198.9 12.525 198.9 11.525V10.725C198.9 9.625 199.2 8.725 199.9 8.025C200.5 7.425 201.4 7.125 202.6 7.125H204.8C206 7.125 206.9 7.425 207.5 8.025C208.1 8.625 208.5 9.525 208.5 10.725V11.125C208.5 11.425 208.3 11.625 208 11.625H206.1C205.8 11.625 205.6 11.425 205.6 11.125V11.025C205.6 10.425 205.5 10.025 205.3 9.825C205.1 9.625 204.7 9.525 204.1 9.525H203.2C202.6 9.525 202.2 9.625 202 9.825C201.8 10.025 201.7 10.525 201.7 11.125V11.525C201.7 12.225 202.3 12.625 203.5 12.725C204.8 12.825 205.9 13.125 206.8 13.525C207.3 13.725 207.7 14.125 208.1 14.725C208.4 15.325 208.6 16.025 208.6 16.925V17.725C208.6 18.825 208.3 19.725 207.6 20.425C207 21.025 206.1 21.425 204.9 21.425H202.5C201.4 21.425 200.5 21.125 199.8 20.425C199.2 19.825 198.8 18.925 198.8 17.725V17.325H199Z" fill="#27004B"/>
</svg>
